<svg width="1155px" height="160px" version="1.1" xmlns="http://www.w3.org/2000/svg" xmlns:xlink="http://www.w3.org/1999/xlink" overflow="visible" id="f1mx9ift">
   <desc>Engraved by Verovio 6.2.1-8d42439</desc>
   <defs>
      <g id="E050-f1mx9ift">
         <path transform="scale(1,-1)" d="M441 -245c-23 -4 -48 -6 -76 -6c-59 0 -102 7 -130 20c-88 42 -150 93 -187 154c-26 44 -43 103 -48 176c0 6 -1 13 -1 19c0 54 15 111 45 170c29 57 65 106 110 148s96 85 153 127c-3 16 -8 46 -13 92c-4 43 -5 73 -5 89c0 117 16 172 69 257c34 54 64 82 89 82 c21 0 43 -30 69 -92s39 -115 41 -159v-15c0 -109 -21 -162 -67 -241c-13 -20 -63 -90 -98 -118c-13 -9 -25 -19 -37 -29l31 -181c8 1 18 2 28 2c58 0 102 -12 133 -35c59 -43 92 -104 98 -184c1 -7 1 -15 1 -22c0 -123 -87 -209 -181 -248c8 -57 17 -110 25 -162 c5 -31 6 -58 6 -80c0 -30 -5 -53 -14 -70c-35 -64 -88 -99 -158 -103c-5 0 -11 -1 -16 -1c-37 0 -72 10 -108 27c-50 24 -77 59 -80 105v11c0 29 7 55 20 76c18 28 45 42 79 44h6c49 0 93 -42 97 -87v-9c0 -51 -34 -86 -105 -106c17 -24 51 -36 102 -36c62 0 116 43 140 85 c9 16 13 41 13 74c0 20 -1 42 -5 67c-8 53 -18 106 -26 159zM461 939c-95 0 -135 -175 -135 -286c0 -24 2 -48 5 -71c50 39 92 82 127 128c40 53 60 100 60 140v8c-4 53 -22 81 -55 81h-2zM406 119l54 -326c73 25 110 78 110 161c0 7 0 15 -1 23c-7 95 -57 142 -151 142h-12 zM382 117c-72 -2 -128 -47 -128 -120v-7c2 -46 43 -99 75 -115c-3 -2 -7 -5 -10 -10c-70 33 -116 88 -123 172v11c0 68 44 126 88 159c23 17 49 29 78 36l-29 170c-21 -13 -52 -37 -92 -73c-50 -44 -86 -84 -109 -119c-45 -69 -67 -130 -67 -182v-13c5 -68 35 -127 93 -176 s125 -73 203 -73c25 0 50 3 75 9c-19 111 -36 221 -54 331z" />
      </g>
      <g id="E262-f1mx9ift">
         <path transform="scale(1,-1)" d="M136 186v169h17v-164l44 14v-91l-44 -14v-165l44 12v-91l-44 -13v-155h-17v150l-76 -22v-155h-17v149l-43 -13v90l43 14v167l-43 -14v92l43 13v169h17v-163zM60 73v-167l76 22v168z" />
      </g>
      <g id="E084-f1mx9ift">
         <path transform="scale(1,-1)" d="M20 -78c84 97 114 180 134 329h170c-13 -32 -82 -132 -99 -151l-84 -97c-33 -36 -59 -63 -80 -81h162v102l127 123v-225h57v-39h-57v-34c0 -43 19 -65 57 -65v-34h-244v36c48 0 60 26 60 70v27h-203v39z" />
      </g>
      <g id="E0A4-f1mx9ift">
         <path transform="scale(1,-1)" d="M0 -39c0 68 73 172 200 172c66 0 114 -37 114 -95c0 -84 -106 -171 -218 -171c-64 0 -96 30 -96 94z" />
      </g>
      <g id="E0A3-f1mx9ift">
         <path transform="scale(1,-1)" d="M278 64c0 22 -17 39 -43 39c-12 0 -26 -3 -41 -10c-85 -43 -165 -94 -165 -156c5 -25 15 -32 49 -32c67 11 200 95 200 159zM0 -36c0 68 73 174 200 174c66 0 114 -39 114 -97c0 -84 -106 -173 -218 -173c-64 0 -96 32 -96 96z" />
      </g>
   </defs>
   <style type="text/css">#f1mx9ift g.ending, #f1mx9ift g.fing, #f1mx9ift g.reh, #f1mx9ift g.tempo {font-weight:bold;}#f1mx9ift g.dir, #f1mx9ift g.dynam, #f1mx9ift g.mNum {font-style:italic;}#f1mx9ift g.label {font-weight:normal;}#f1mx9ift ellipse, #f1mx9ift path, #f1mx9ift polygon, #f1mx9ift polyline, #f1mx9ift rect {stroke:currentColor}</style>
   <svg class="definition-scale" color="black" font-family="Times, serif" viewBox="0 0 21000 2900">
      <g class="page-margin" transform="translate(500, 500)">
         <g id="p2f2ptn" class="mdiv pageMilestone" />
         <g id="q1fo5qhb" class="score pageMilestone" />
         <g id="denroy" class="system">
            <g id="s5x3x63" class="section systemMilestone" />
            <g id="ibx2tqu" class="section systemMilestone" />
            <g id="fcnnzaw" class="measure">
               <g id="o1f1d3t6" class="staff">
                  <path d="M0 641 L4975 641" stroke-width="13" />
                  <path d="M0 821 L4975 821" stroke-width="13" />
                  <path d="M0 1001 L4975 1001" stroke-width="13" />
                  <path d="M0 1181 L4975 1181" stroke-width="13" />
                  <path d="M0 1361 L4975 1361" stroke-width="13" />
                  <g id="vle7p2s" class="clef">
                     <use xlink:href="#E050-f1mx9ift" transform="translate(90, 1181) scale(0.72, 0.72)" />
                  </g>
                  <g id="we6jm9r" class="keySig">
                     <g id="x17oxtd" class="keyAccid">
                        <use xlink:href="#E262-f1mx9ift" transform="translate(735, 641) scale(0.72, 0.72)" />
                     </g>
                     <g id="y1ek7j0o" class="keyAccid">
                        <use xlink:href="#E262-f1mx9ift" transform="translate(913, 911) scale(0.72, 0.72)" />
                     </g>
                  </g>
                  <g id="z12hnkt3" class="meterSig">
                     <use xlink:href="#E084-f1mx9ift" transform="translate(1220, 821) scale(0.72, 0.72)" />
                     <use xlink:href="#E084-f1mx9ift" transform="translate(1220, 1181) scale(0.72, 0.72)" />
                  </g>
                  <g id="r1vsqrny" class="layer">
                     <g id="s1qlw3lz" class="note">
                        <g class="notehead">
                           <use xlink:href="#E0A4-f1mx9ift" transform="translate(1782, 1091) scale(0.72, 0.72)" />
                        </g>
                        <g id="l1a5ypku" class="stem">
                           <path d="M1999 1063 L1999 461" stroke-width="18" />
                        </g>
                        <g id="t166vnal" class="accid" />
                     </g>
                     <g id="ur8qa2i" class="beam">
                        <polygon points="2680,461 3148,416 3148,506 2680,551" />
                        <g id="v494f2h" class="note">
                           <g class="notehead">
                              <use xlink:href="#E0A4-f1mx9ift" transform="translate(2472, 1271) scale(0.72, 0.72)" />
                           </g>
                           <g id="m8lj65z" class="stem">
                              <path d="M2689 1243 L2689 479" stroke-width="18" />
                           </g>
                           <g id="w1fiqd8k" class="accid" />
                        </g>
                        <g id="xpefdlq" class="note">
                           <g class="notehead">
                              <use xlink:href="#E0A4-f1mx9ift" transform="translate(2922, 1091) scale(0.72, 0.72)" />
                           </g>
                           <g id="n18ymdve" class="stem">
                              <path d="M3139 1063 L3139 434" stroke-width="18" />
                           </g>
                           <g id="yvlwaeu" class="accid" />
                        </g>
                     </g>
                     <g id="z1e3si5x" class="note">
                        <g class="notehead">
                           <use xlink:href="#E0A4-f1mx9ift" transform="translate(3372, 821) scale(0.72, 0.72)" />
                        </g>
                        <g id="o1b50vw2" class="stem">
                           <path d="M3381 849 L3381 1451" stroke-width="18" />
                        </g>
                        <g id="a157f6cg" class="accid" />
                     </g>
                     <g id="b1fhgogh" class="beam">
                        <polygon points="4062,1586 4530,1541 4530,1451 4062,1496" />
                        <g id="c1b5xfqc" class="note">
                           <g class="notehead">
                              <use xlink:href="#E0A4-f1mx9ift" transform="translate(4062, 911) scale(0.72, 0.72)" />
                           </g>
                           <g id="p1ti43en" class="stem">
                              <path d="M4071 939 L4071 1568" stroke-width="18" />
                           </g>
                           <g id="dy67lme" class="accid" />
                        </g>
                        <g id="e1nht5zh" class="note">
                           <g class="notehead">
                              <use xlink:href="#E0A4-f1mx9ift" transform="translate(4512, 821) scale(0.72, 0.72)" />
                           </g>
                           <g id="qgwlice" class="stem">
                              <path d="M4521 849 L4521 1523" stroke-width="18" />
                           </g>
                           <g id="f1p5elyl" class="accid" />
                        </g>
                     </g>
                  </g>
               </g>
               <g id="p10ymduu" class="harm">
                  <text x="1782" y="274" font-size="0px">
                     <tspan id="q1ib7y9k" class="text">
                        <tspan font-size="405px" x="1782" y="274">D</tspan>
                     </tspan>
                  </text>
               </g>
               <g id="nynvdm2" class="barLine">
                  <path d="M4962 641 L4962 1361" stroke-width="27" />
               </g>
            </g>
            <g id="g1j1vn5t" class="measure">
               <g id="p1g1mnb" class="staff">
                  <path d="M4975 641 L8348 641" stroke-width="13" />
                  <path d="M4975 821 L8348 821" stroke-width="13" />
                  <path d="M4975 1001 L8348 1001" stroke-width="13" />
                  <path d="M4975 1181 L8348 1181" stroke-width="13" />
                  <path d="M4975 1361 L8348 1361" stroke-width="13" />
                  <g id="s10h8ple" class="layer">
                     <g id="t1bws06k" class="note">
                        <g class="notehead">
                           <use xlink:href="#E0A4-f1mx9ift" transform="translate(5155, 1001) scale(0.72, 0.72)" />
                        </g>
                        <g id="rspe3fq" class="stem">
                           <path d="M5164 1029 L5164 1601" stroke-width="18" />
                        </g>
                        <g id="u2idiqb" class="accid" />
                     </g>
                     <g id="vjp7st9" class="beam">
                        <polygon points="6053,461 6521,416 6521,506 6053,551" />
                        <g id="w7qn4un" class="note">
                           <g class="notehead">
                              <use xlink:href="#E0A4-f1mx9ift" transform="translate(5845, 1181) scale(0.72, 0.72)" />
                           </g>
                           <g id="sinwcb4" class="stem">
                              <path d="M6062 1153 L6062 479" stroke-width="18" />
                           </g>
                           <g id="x158rbuv" class="accid" />
                        </g>
                        <g id="y1vxzg00" class="note">
                           <g class="notehead">
                              <use xlink:href="#E0A4-f1mx9ift" transform="translate(6295, 1001) scale(0.72, 0.72)" />
                           </g>
                           <g id="teqzd45" class="stem">
                              <path d="M6512 973 L6512 434" stroke-width="18" />
                           </g>
                           <g id="zhd15bo" class="accid" />
                        </g>
                     </g>
                     <g id="cu6cz9o" class="note">
                        <g class="notehead">
                           <use xlink:href="#E0A4-f1mx9ift" transform="translate(6745, 731) scale(0.72, 0.72)" />
                        </g>
                        <g id="uvsme99" class="stem">
                           <path d="M6754 759 L6754 1361" stroke-width="18" />
                        </g>
                        <g id="do52800" class="accid" />
                     </g>
                     <g id="e1kqk0m5" class="beam">
                        <polygon points="7435,1586 7903,1541 7903,1451 7435,1496" />
                        <g id="fq1hlie" class="note">
                           <g class="notehead">
                              <use xlink:href="#E0A4-f1mx9ift" transform="translate(7435, 911) scale(0.72, 0.72)" />
                           </g>
                           <g id="v1fpefwz" class="stem">
                              <path d="M7444 939 L7444 1568" stroke-width="18" />
                           </g>
                           <g id="g1vr8n4t" class="accid" />
                        </g>
                        <g id="hfhak5l" class="note">
                           <g class="notehead">
                              <use xlink:href="#E0A4-f1mx9ift" transform="translate(7885, 731) scale(0.72, 0.72)" />
                           </g>
                           <g id="w7lvhgm" class="stem">
                              <path d="M7894 759 L7894 1523" stroke-width="18" />
                           </g>
                           <g id="if8a2gn" class="accid" />
                        </g>
                     </g>
                  </g>
               </g>
               <g id="q1rqy978" class="harm">
                  <text x="5155" y="274" font-size="0px">
                     <tspan id="r154suci" class="text">
                        <tspan font-size="405px" x="5155" y="274">G</tspan>
                     </tspan>
                  </text>
               </g>
               <g id="an760v1" class="harm">
                  <text x="6745" y="274" font-size="0px">
                     <tspan id="bjcwcx" class="text">
                        <tspan font-size="405px" x="6745" y="274">A</tspan>
                     </tspan>
                  </text>
               </g>
               <g id="oy3bonl" class="barLine">
                  <path d="M8335 641 L8335 1361" stroke-width="27" />
               </g>
            </g>
            <g id="j20ze5o" class="measure">
               <g id="s1lp2yst" class="staff">
                  <path d="M8348 641 L11721 641" stroke-width="13" />
                  <path d="M8348 821 L11721 821" stroke-width="13" />
                  <path d="M8348 1001 L11721 1001" stroke-width="13" />
                  <path d="M8348 1181 L11721 1181" stroke-width="13" />
                  <path d="M8348 1361 L11721 1361" stroke-width="13" />
                  <g id="v1jhd6m0" class="layer">
                     <g id="w139nb6a" class="note">
                        <g class="notehead">
                           <use xlink:href="#E0A4-f1mx9ift" transform="translate(8528, 821) scale(0.72, 0.72)" />
                        </g>
                        <g id="xzdxzbw" class="stem">
                           <path d="M8537 849 L8537 1451" stroke-width="18" />
                        </g>
                        <g id="xvcl9p9" class="accid" />
                     </g>
                     <g id="y115iv1d" class="beam">
                        <polygon points="9426,461 9894,416 9894,506 9426,551" />
                        <g id="z108ix0" class="note">
                           <g class="notehead">
                              <use xlink:href="#E0A4-f1mx9ift" transform="translate(9218, 1271) scale(0.72, 0.72)" />
                           </g>
                           <g id="y1fxpacc" class="stem">
                              <path d="M9435 1243 L9435 479" stroke-width="18" />
                           </g>
                           <g id="a1c44nor" class="accid" />
                        </g>
                        <g id="bm6os31" class="note">
                           <g class="notehead">
                              <use xlink:href="#E0A4-f1mx9ift" transform="translate(9668, 1091) scale(0.72, 0.72)" />
                           </g>
                           <g id="ze9sqjj" class="stem">
                              <path d="M9885 1063 L9885 434" stroke-width="18" />
                           </g>
                           <g id="c1ppnjh0" class="accid" />
                        </g>
                     </g>
                     <g id="d1p2gc60" class="note">
                        <g class="notehead">
                           <use xlink:href="#E0A4-f1mx9ift" transform="translate(10118, 821) scale(0.72, 0.72)" />
                        </g>
                        <g id="aiggsh2" class="stem">
                           <path d="M10127 849 L10127 1451" stroke-width="18" />
                        </g>
                        <g id="e8hvj5b" class="accid" />
                     </g>
                     <g id="fm0jfyl" class="beam">
                        <polygon points="10808,1586 11276,1541 11276,1451 10808,1496" />
                        <g id="g4esnt4" class="note">
                           <g class="notehead">
                              <use xlink:href="#E0A4-f1mx9ift" transform="translate(10808, 911) scale(0.72, 0.72)" />
                           </g>
                           <g id="b1l8nm4i" class="stem">
                              <path d="M10817 939 L10817 1568" stroke-width="18" />
                           </g>
                           <g id="hmfprtg" class="accid" />
                        </g>
                        <g id="i1vx2ca2" class="note">
                           <g class="notehead">
                              <use xlink:href="#E0A4-f1mx9ift" transform="translate(11258, 821) scale(0.72, 0.72)" />
                           </g>
                           <g id="cok9glz" class="stem">
                              <path d="M11267 849 L11267 1523" stroke-width="18" />
                           </g>
                           <g id="jkvkuc3" class="accid" />
                        </g>
                     </g>
                  </g>
               </g>
               <g id="tdvxxij" class="harm">
                  <text x="8528" y="274" font-size="0px">
                     <tspan id="uhn4rvq" class="text">
                        <tspan font-size="405px" x="8528" y="274">D</tspan>
                     </tspan>
                  </text>
               </g>
               <g id="r12k9r7s" class="barLine">
                  <path d="M11708 641 L11708 1361" stroke-width="27" />
               </g>
            </g>
            <g id="k177bogg" class="measure">
               <g id="t567qgl" class="staff">
                  <path d="M11721 641 L14716 641" stroke-width="13" />
                  <path d="M11721 821 L14716 821" stroke-width="13" />
                  <path d="M11721 1001 L14716 1001" stroke-width="13" />
                  <path d="M11721 1181 L14716 1181" stroke-width="13" />
                  <path d="M11721 1361 L14716 1361" stroke-width="13" />
                  <g id="w102no0c" class="layer">
                     <g id="x175t658" class="note">
                        <g class="notehead">
                           <use xlink:href="#E0A4-f1mx9ift" transform="translate(11901, 731) scale(0.72, 0.72)" />
                        </g>
                        <g id="d4fmgwd" class="stem">
                           <path d="M11910 759 L11910 1361" stroke-width="18" />
                        </g>
                        <g id="y1bwtx0d" class="accid" />
                     </g>
                     <g id="z1a0g1dj" class="beam">
                        <polygon points="12591,1586 13059,1541 13059,1451 12591,1496" />
                        <g id="afnbanm" class="note">
                           <g class="notehead">
                              <use xlink:href="#E0A4-f1mx9ift" transform="translate(12591, 911) scale(0.72, 0.72)" />
                           </g>
                           <g id="eeg3nbd" class="stem">
                              <path d="M12600 939 L12600 1568" stroke-width="18" />
                           </g>
                           <g id="b18h80af" class="accid" />
                        </g>
                        <g id="cjfgvsb" class="note">
                           <g class="notehead">
                              <use xlink:href="#E0A4-f1mx9ift" transform="translate(13041, 731) scale(0.72, 0.72)" />
                           </g>
                           <g id="f1x2iis" class="stem">
                              <path d="M13050 759 L13050 1523" stroke-width="18" />
                           </g>
                           <g id="d17rtmhz" class="accid" />
                        </g>
                     </g>
                     <g id="geiry5t" class="note">
                        <g class="notehead">
                           <use xlink:href="#E0A3-f1mx9ift" transform="translate(13491, 821) scale(0.72, 0.72)" />
                        </g>
                        <g id="g1oznlb5" class="stem">
                           <path d="M13500 846 L13500 1451" stroke-width="18" />
                        </g>
                        <g id="hv0a779" class="accid" />
                     </g>
                  </g>
               </g>
               <g id="u1vsrums" class="harm">
                  <text x="11901" y="274" font-size="0px">
                     <tspan id="vxwgobr" class="text">
                        <tspan font-size="405px" x="11901" y="274">A</tspan>
                     </tspan>
                  </text>
               </g>
               <g id="e1g4xuz9" class="harm">
                  <text x="13491" y="274" font-size="0px">
                     <tspan id="f1lg406w" class="text">
                        <tspan font-size="405px" x="13491" y="274">D</tspan>
                     </tspan>
                  </text>
               </g>
               <g id="sxg2rgr" class="barLine">
                  <path d="M14541 641 L14541 1361" stroke-width="27" />
                  <path d="M14671 641 L14671 1361" stroke-width="90" />
               </g>
            </g>
            <g id="r1br9oii" class="systemMilestoneEnd ibx2tqu" />
            <g id="s176vdaa" class="systemMilestoneEnd s5x3x63" />
         </g>
         <g id="t1qe7dlg" class="pageMilestoneEnd q1fo5qhb" />
         <g id="u3n5vb1" class="pageMilestoneEnd p2f2ptn" />
      </g>
   </svg>
</svg>
