<svg width="1155px" height="154px" version="1.1" xmlns="http://www.w3.org/2000/svg" xmlns:xlink="http://www.w3.org/1999/xlink" overflow="visible" id="y1mruhh8">
   <desc>Engraved by Verovio 6.2.1-8d42439</desc>
   <defs>
      <g id="E050-y1mruhh8">
         <path transform="scale(1,-1)" d="M441 -245c-23 -4 -48 -6 -76 -6c-59 0 -102 7 -130 20c-88 42 -150 93 -187 154c-26 44 -43 103 -48 176c0 6 -1 13 -1 19c0 54 15 111 45 170c29 57 65 106 110 148s96 85 153 127c-3 16 -8 46 -13 92c-4 43 -5 73 -5 89c0 117 16 172 69 257c34 54 64 82 89 82 c21 0 43 -30 69 -92s39 -115 41 -159v-15c0 -109 -21 -162 -67 -241c-13 -20 -63 -90 -98 -118c-13 -9 -25 -19 -37 -29l31 -181c8 1 18 2 28 2c58 0 102 -12 133 -35c59 -43 92 -104 98 -184c1 -7 1 -15 1 -22c0 -123 -87 -209 -181 -248c8 -57 17 -110 25 -162 c5 -31 6 -58 6 -80c0 -30 -5 -53 -14 -70c-35 -64 -88 -99 -158 -103c-5 0 -11 -1 -16 -1c-37 0 -72 10 -108 27c-50 24 -77 59 -80 105v11c0 29 7 55 20 76c18 28 45 42 79 44h6c49 0 93 -42 97 -87v-9c0 -51 -34 -86 -105 -106c17 -24 51 -36 102 -36c62 0 116 43 140 85 c9 16 13 41 13 74c0 20 -1 42 -5 67c-8 53 -18 106 -26 159zM461 939c-95 0 -135 -175 -135 -286c0 -24 2 -48 5 -71c50 39 92 82 127 128c40 53 60 100 60 140v8c-4 53 -22 81 -55 81h-2zM406 119l54 -326c73 25 110 78 110 161c0 7 0 15 -1 23c-7 95 -57 142 -151 142h-12 zM382 117c-72 -2 -128 -47 -128 -120v-7c2 -46 43 -99 75 -115c-3 -2 -7 -5 -10 -10c-70 33 -116 88 -123 172v11c0 68 44 126 88 159c23 17 49 29 78 36l-29 170c-21 -13 -52 -37 -92 -73c-50 -44 -86 -84 -109 -119c-45 -69 -67 -130 -67 -182v-13c5 -68 35 -127 93 -176 s125 -73 203 -73c25 0 50 3 75 9c-19 111 -36 221 -54 331z" />
      </g>
      <g id="E262-y1mruhh8">
         <path transform="scale(1,-1)" d="M136 186v169h17v-164l44 14v-91l-44 -14v-165l44 12v-91l-44 -13v-155h-17v150l-76 -22v-155h-17v149l-43 -13v90l43 14v167l-43 -14v92l43 13v169h17v-163zM60 73v-167l76 22v168z" />
      </g>
      <g id="E084-y1mruhh8">
         <path transform="scale(1,-1)" d="M20 -78c84 97 114 180 134 329h170c-13 -32 -82 -132 -99 -151l-84 -97c-33 -36 -59 -63 -80 -81h162v102l127 123v-225h57v-39h-57v-34c0 -43 19 -65 57 -65v-34h-244v36c48 0 60 26 60 70v27h-203v39z" />
      </g>
      <g id="E0A4-y1mruhh8">
         <path transform="scale(1,-1)" d="M0 -39c0 68 73 172 200 172c66 0 114 -37 114 -95c0 -84 -106 -171 -218 -171c-64 0 -96 30 -96 94z" />
      </g>
      <g id="E0A3-y1mruhh8">
         <path transform="scale(1,-1)" d="M278 64c0 22 -17 39 -43 39c-12 0 -26 -3 -41 -10c-85 -43 -165 -94 -165 -156c5 -25 15 -32 49 -32c67 11 200 95 200 159zM0 -36c0 68 73 174 200 174c66 0 114 -39 114 -97c0 -84 -106 -173 -218 -173c-64 0 -96 32 -96 96z" />
      </g>
   </defs>
   <style type="text/css">#y1mruhh8 g.ending, #y1mruhh8 g.fing, #y1mruhh8 g.reh, #y1mruhh8 g.tempo {font-weight:bold;}#y1mruhh8 g.dir, #y1mruhh8 g.dynam, #y1mruhh8 g.mNum {font-style:italic;}#y1mruhh8 g.label {font-weight:normal;}#y1mruhh8 ellipse, #y1mruhh8 path, #y1mruhh8 polygon, #y1mruhh8 polyline, #y1mruhh8 rect {stroke:currentColor}</style>
   <svg class="definition-scale" color="black" font-family="Times, serif" viewBox="0 0 21000 2800">
      <g class="page-margin" transform="translate(500, 500)">
         <g id="i1q83d9y" class="mdiv pageMilestone" />
         <g id="j1gq1ox0" class="score pageMilestone" />
         <g id="ch0jhm4" class="system">
            <g id="l1njtwph" class="section systemMilestone" />
            <g id="b1iy573o" class="section systemMilestone" />
            <g id="y12jovv5" class="measure">
               <g id="h1g4tkov" class="staff">
                  <path d="M0 547 L5331 547" stroke-width="13" />
                  <path d="M0 727 L5331 727" stroke-width="13" />
                  <path d="M0 907 L5331 907" stroke-width="13" />
                  <path d="M0 1087 L5331 1087" stroke-width="13" />
                  <path d="M0 1267 L5331 1267" stroke-width="13" />
                  <g id="a1lo91vk" class="clef">
                     <use xlink:href="#E050-y1mruhh8" transform="translate(90, 1087) scale(0.72, 0.72)" />
                  </g>
                  <g id="bq2chdm" class="keySig">
                     <g id="c6vdsm1" class="keyAccid">
                        <use xlink:href="#E262-y1mruhh8" transform="translate(735, 547) scale(0.72, 0.72)" />
                     </g>
                     <g id="do68dal" class="keyAccid">
                        <use xlink:href="#E262-y1mruhh8" transform="translate(913, 817) scale(0.72, 0.72)" />
                     </g>
                     <g id="elekq9d" class="keyAccid">
                        <use xlink:href="#E262-y1mruhh8" transform="translate(1091, 457) scale(0.72, 0.72)" />
                     </g>
                     <g id="f12zzj5v" class="keyAccid">
                        <use xlink:href="#E262-y1mruhh8" transform="translate(1269, 727) scale(0.72, 0.72)" />
                     </g>
                  </g>
                  <g id="g1073ii" class="meterSig">
                     <use xlink:href="#E084-y1mruhh8" transform="translate(1576, 727) scale(0.72, 0.72)" />
                     <use xlink:href="#E084-y1mruhh8" transform="translate(1576, 1087) scale(0.72, 0.72)" />
                  </g>
                  <g id="k1v6lrb5" class="layer">
                     <g id="l1c817pr" class="note">
                        <g class="notehead">
                           <use xlink:href="#E0A4-y1mruhh8" transform="translate(2138, 907) scale(0.72, 0.72)" />
                        </g>
                        <g id="g9tlho8" class="stem">
                           <path d="M2147 935 L2147 1507" stroke-width="18" />
                        </g>
                        <g id="myunmvz" class="accid" />
                     </g>
                     <g id="n192e9rh" class="beam">
                        <polygon points="3036,367 3504,322 3504,412 3036,457" />
                        <g id="o1hbu98y" class="note">
                           <g class="notehead">
                              <use xlink:href="#E0A4-y1mruhh8" transform="translate(2828, 1087) scale(0.72, 0.72)" />
                           </g>
                           <g id="h7rw9uk" class="stem">
                              <path d="M3045 1059 L3045 385" stroke-width="18" />
                           </g>
                           <g id="pxwgoaj" class="accid" />
                        </g>
                        <g id="q1a4zbui" class="note">
                           <g class="notehead">
                              <use xlink:href="#E0A4-y1mruhh8" transform="translate(3278, 907) scale(0.72, 0.72)" />
                           </g>
                           <g id="i1m4xm21" class="stem">
                              <path d="M3495 879 L3495 340" stroke-width="18" />
                           </g>
                           <g id="ragpnrr" class="accid" />
                        </g>
                     </g>
                     <g id="s1wmxz15" class="note">
                        <g class="notehead">
                           <use xlink:href="#E0A4-y1mruhh8" transform="translate(3728, 637) scale(0.72, 0.72)" />
                        </g>
                        <g id="jmwxhaq" class="stem">
                           <path d="M3737 665 L3737 1267" stroke-width="18" />
                        </g>
                        <g id="t1mmp6vt" class="accid" />
                     </g>
                     <g id="u1fbkv50" class="beam">
                        <polygon points="4418,1402 4886,1357 4886,1267 4418,1312" />
                        <g id="v1gnlmo4" class="note">
                           <g class="notehead">
                              <use xlink:href="#E0A4-y1mruhh8" transform="translate(4418, 727) scale(0.72, 0.72)" />
                           </g>
                           <g id="kj1c7t3" class="stem">
                              <path d="M4427 755 L4427 1384" stroke-width="18" />
                           </g>
                           <g id="w1ocru29" class="accid" />
                        </g>
                        <g id="x1cgsrrk" class="note">
                           <g class="notehead">
                              <use xlink:href="#E0A4-y1mruhh8" transform="translate(4868, 637) scale(0.72, 0.72)" />
                           </g>
                           <g id="lj5hcl9" class="stem">
                              <path d="M4877 665 L4877 1339" stroke-width="18" />
                           </g>
                           <g id="yi3v260" class="accid" />
                        </g>
                     </g>
                  </g>
               </g>
               <g id="i14tlv6s" class="harm">
                  <text x="2138" y="273" font-size="0px">
                     <tspan id="j5om8c0" class="text">
                        <tspan font-size="405px" x="2138" y="273">E</tspan>
                     </tspan>
                  </text>
               </g>
               <g id="g22vf7p" class="barLine">
                  <path d="M5318 547 L5318 1267" stroke-width="27" />
               </g>
            </g>
            <g id="z9creho" class="measure">
               <g id="itka710" class="staff">
                  <path d="M5331 547 L8704 547" stroke-width="13" />
                  <path d="M5331 727 L8704 727" stroke-width="13" />
                  <path d="M5331 907 L8704 907" stroke-width="13" />
                  <path d="M5331 1087 L8704 1087" stroke-width="13" />
                  <path d="M5331 1267 L8704 1267" stroke-width="13" />
                  <g id="lz69q39" class="layer">
                     <g id="m1qf617i" class="note">
                        <g class="notehead">
                           <use xlink:href="#E0A4-y1mruhh8" transform="translate(5511, 817) scale(0.72, 0.72)" />
                        </g>
                        <g id="m6bhmq2" class="stem">
                           <path d="M5520 845 L5520 1447" stroke-width="18" />
                        </g>
                        <g id="n1wvd4nc" class="accid" />
                     </g>
                     <g id="o1xeavjo" class="beam">
                        <polygon points="6409,277 6877,232 6877,322 6409,367" />
                        <g id="p1ve1hzn" class="note">
                           <g class="notehead">
                              <use xlink:href="#E0A4-y1mruhh8" transform="translate(6201, 997) scale(0.72, 0.72)" />
                           </g>
                           <g id="n6csl8y" class="stem">
                              <path d="M6418 969 L6418 295" stroke-width="18" />
                           </g>
                           <g id="q18fw1jw" class="accid" />
                        </g>
                        <g id="r1d08a7p" class="note">
                           <g class="notehead">
                              <use xlink:href="#E0A4-y1mruhh8" transform="translate(6651, 817) scale(0.72, 0.72)" />
                           </g>
                           <g id="oie29ca" class="stem">
                              <path d="M6868 789 L6868 250" stroke-width="18" />
                           </g>
                           <g id="s2w5jzx" class="accid" />
                        </g>
                     </g>
                     <g id="v1spn0cy" class="note">
                        <g class="notehead">
                           <use xlink:href="#E0A4-y1mruhh8" transform="translate(7101, 547) scale(0.72, 0.72)" />
                        </g>
                        <g id="pbchbty" class="stem">
                           <path d="M7110 575 L7110 1177" stroke-width="18" />
                        </g>
                        <g id="w1y3cvh5" class="accid" />
                     </g>
                     <g id="xjdc8wc" class="beam">
                        <polygon points="7791,1402 8259,1357 8259,1267 7791,1312" />
                        <g id="y1ll5vly" class="note">
                           <g class="notehead">
                              <use xlink:href="#E0A4-y1mruhh8" transform="translate(7791, 727) scale(0.72, 0.72)" />
                           </g>
                           <g id="qnm0ib1" class="stem">
                              <path d="M7800 755 L7800 1384" stroke-width="18" />
                           </g>
                           <g id="zu625fd" class="accid" />
                        </g>
                        <g id="a169quef" class="note">
                           <g class="notehead">
                              <use xlink:href="#E0A4-y1mruhh8" transform="translate(8241, 547) scale(0.72, 0.72)" />
                           </g>
                           <g id="r16dpq83" class="stem">
                              <path d="M8250 575 L8250 1339" stroke-width="18" />
                           </g>
                           <g id="b1lj5fin" class="accid" />
                        </g>
                     </g>
                  </g>
               </g>
               <g id="jo03bfs" class="harm">
                  <text x="5511" y="273" font-size="0px">
                     <tspan id="k1lahjmi" class="text">
                        <tspan font-size="405px" x="5511" y="273">A</tspan>
                     </tspan>
                  </text>
               </g>
               <g id="tf8e103" class="harm">
                  <text x="7101" y="273" font-size="0px">
                     <tspan id="u1t3fb0p" class="text">
                        <tspan font-size="405px" x="7101" y="273">B</tspan>
                     </tspan>
                  </text>
               </g>
               <g id="hflxdc6" class="barLine">
                  <path d="M8691 547 L8691 1267" stroke-width="27" />
               </g>
            </g>
            <g id="c169x5nw" class="measure">
               <g id="l15mra2h" class="staff">
                  <path d="M8704 547 L12077 547" stroke-width="13" />
                  <path d="M8704 727 L12077 727" stroke-width="13" />
                  <path d="M8704 907 L12077 907" stroke-width="13" />
                  <path d="M8704 1087 L12077 1087" stroke-width="13" />
                  <path d="M8704 1267 L12077 1267" stroke-width="13" />
                  <g id="o5au4x2" class="layer">
                     <g id="p40ci7a" class="note">
                        <g class="notehead">
                           <use xlink:href="#E0A4-y1mruhh8" transform="translate(8884, 637) scale(0.72, 0.72)" />
                        </g>
                        <g id="sfud18z" class="stem">
                           <path d="M8893 665 L8893 1267" stroke-width="18" />
                        </g>
                        <g id="q126jknl" class="accid" />
                     </g>
                     <g id="r2knlua" class="beam">
                        <polygon points="9782,367 10250,322 10250,412 9782,457" />
                        <g id="s1rlavg3" class="note">
                           <g class="notehead">
                              <use xlink:href="#E0A4-y1mruhh8" transform="translate(9574, 1087) scale(0.72, 0.72)" />
                           </g>
                           <g id="tl90fre" class="stem">
                              <path d="M9791 1059 L9791 385" stroke-width="18" />
                           </g>
                           <g id="tsq3445" class="accid" />
                        </g>
                        <g id="ugp0ztz" class="note">
                           <g class="notehead">
                              <use xlink:href="#E0A4-y1mruhh8" transform="translate(10024, 907) scale(0.72, 0.72)" />
                           </g>
                           <g id="uvjhrs6" class="stem">
                              <path d="M10241 879 L10241 340" stroke-width="18" />
                           </g>
                           <g id="vsn9ezu" class="accid" />
                        </g>
                     </g>
                     <g id="w1icdd34" class="note">
                        <g class="notehead">
                           <use xlink:href="#E0A4-y1mruhh8" transform="translate(10474, 637) scale(0.72, 0.72)" />
                        </g>
                        <g id="vwqlugo" class="stem">
                           <path d="M10483 665 L10483 1267" stroke-width="18" />
                        </g>
                        <g id="xici4q1" class="accid" />
                     </g>
                     <g id="ydyqj2w" class="beam">
                        <polygon points="11164,1402 11632,1357 11632,1267 11164,1312" />
                        <g id="z50gjc9" class="note">
                           <g class="notehead">
                              <use xlink:href="#E0A4-y1mruhh8" transform="translate(11164, 727) scale(0.72, 0.72)" />
                           </g>
                           <g id="w138qcre" class="stem">
                              <path d="M11173 755 L11173 1384" stroke-width="18" />
                           </g>
                           <g id="az7q5is" class="accid" />
                        </g>
                        <g id="b8kh62l" class="note">
                           <g class="notehead">
                              <use xlink:href="#E0A4-y1mruhh8" transform="translate(11614, 637) scale(0.72, 0.72)" />
                           </g>
                           <g id="x3ktzbu" class="stem">
                              <path d="M11623 665 L11623 1339" stroke-width="18" />
                           </g>
                           <g id="c7prwtg" class="accid" />
                        </g>
                     </g>
                  </g>
               </g>
               <g id="m1tceq44" class="harm">
                  <text x="8884" y="273" font-size="0px">
                     <tspan id="n12so395" class="text">
                        <tspan font-size="405px" x="8884" y="273">E</tspan>
                     </tspan>
                  </text>
               </g>
               <g id="krnqkez" class="barLine">
                  <path d="M12064 547 L12064 1267" stroke-width="27" />
               </g>
            </g>
            <g id="dodni6c" class="measure">
               <g id="m11cv5li" class="staff">
                  <path d="M12077 547 L15072 547" stroke-width="13" />
                  <path d="M12077 727 L15072 727" stroke-width="13" />
                  <path d="M12077 907 L15072 907" stroke-width="13" />
                  <path d="M12077 1087 L15072 1087" stroke-width="13" />
                  <path d="M12077 1267 L15072 1267" stroke-width="13" />
                  <g id="pm1duju" class="layer">
                     <g id="q1ayhd6l" class="note">
                        <g class="notehead">
                           <use xlink:href="#E0A4-y1mruhh8" transform="translate(12257, 547) scale(0.72, 0.72)" />
                        </g>
                        <g id="y2cz8s" class="stem">
                           <path d="M12266 575 L12266 1177" stroke-width="18" />
                        </g>
                        <g id="r1p7u3lj" class="accid" />
                     </g>
                     <g id="s1nzjszv" class="beam">
                        <polygon points="12947,1402 13415,1357 13415,1267 12947,1312" />
                        <g id="t1gtff71" class="note">
                           <g class="notehead">
                              <use xlink:href="#E0A4-y1mruhh8" transform="translate(12947, 727) scale(0.72, 0.72)" />
                           </g>
                           <g id="zk0akfu" class="stem">
                              <path d="M12956 755 L12956 1384" stroke-width="18" />
                           </g>
                           <g id="u1hos13z" class="accid" />
                        </g>
                        <g id="v100h83e" class="note">
                           <g class="notehead">
                              <use xlink:href="#E0A4-y1mruhh8" transform="translate(13397, 547) scale(0.72, 0.72)" />
                           </g>
                           <g id="a10r292l" class="stem">
                              <path d="M13406 575 L13406 1339" stroke-width="18" />
                           </g>
                           <g id="w8pt16b" class="accid" />
                        </g>
                     </g>
                     <g id="z1qxghh6" class="note">
                        <g class="notehead">
                           <use xlink:href="#E0A3-y1mruhh8" transform="translate(13847, 637) scale(0.72, 0.72)" />
                        </g>
                        <g id="b8pkkjx" class="stem">
                           <path d="M13856 662 L13856 1267" stroke-width="18" />
                        </g>
                        <g id="ajpueqo" class="accid" />
                     </g>
                  </g>
               </g>
               <g id="n339pgb" class="harm">
                  <text x="12257" y="273" font-size="0px">
                     <tspan id="o1b21jv6" class="text">
                        <tspan font-size="405px" x="12257" y="273">B</tspan>
                     </tspan>
                  </text>
               </g>
               <g id="xlk85t9" class="harm">
                  <text x="13847" y="273" font-size="0px">
                     <tspan id="y1l0jktf" class="text">
                        <tspan font-size="405px" x="13847" y="273">E</tspan>
                     </tspan>
                  </text>
               </g>
               <g id="l1hf5x2y" class="barLine">
                  <path d="M14897 547 L14897 1267" stroke-width="27" />
                  <path d="M15027 547 L15027 1267" stroke-width="90" />
               </g>
            </g>
            <g id="kttgb06" class="systemMilestoneEnd b1iy573o" />
            <g id="lm963bo" class="systemMilestoneEnd l1njtwph" />
         </g>
         <g id="m1ww5pdx" class="pageMilestoneEnd j1gq1ox0" />
         <g id="n57sppq" class="pageMilestoneEnd i1q83d9y" />
      </g>
   </svg>
</svg>
